<mxfile host="Electron" modified="2024-10-26T16:26:14.738Z" agent="Mozilla/5.0 (Windows NT 10.0; Win64; x64) AppleWebKit/537.36 (KHTML, like Gecko) draw.io/24.4.0 Chrome/120.0.6099.109 Electron/28.1.0 Safari/537.36" etag="5dIw3SGf92WleyOA4CBw" version="24.4.0" type="device">
  <diagram name="Страница — 1" id="S1XpcX2NM3s2nTySHdek">
    <mxGraphModel dx="1050" dy="629" grid="1" gridSize="10" guides="1" tooltips="1" connect="1" arrows="1" fold="1" page="1" pageScale="1" pageWidth="827" pageHeight="1169" math="0" shadow="0">
      <root>
        <mxCell id="0" />
        <mxCell id="1" parent="0" />
        <mxCell id="EIaNq5O-a3HQVo8P9T8s-10" style="edgeStyle=orthogonalEdgeStyle;rounded=0;orthogonalLoop=1;jettySize=auto;html=1;entryX=0.5;entryY=0;entryDx=0;entryDy=0;strokeWidth=2;fontSize=17;" edge="1" parent="1" source="EIaNq5O-a3HQVo8P9T8s-1" target="EIaNq5O-a3HQVo8P9T8s-2">
          <mxGeometry relative="1" as="geometry" />
        </mxCell>
        <mxCell id="EIaNq5O-a3HQVo8P9T8s-11" style="edgeStyle=orthogonalEdgeStyle;rounded=0;orthogonalLoop=1;jettySize=auto;html=1;entryX=0.5;entryY=0;entryDx=0;entryDy=0;strokeWidth=2;fontSize=17;" edge="1" parent="1" source="EIaNq5O-a3HQVo8P9T8s-1" target="EIaNq5O-a3HQVo8P9T8s-3">
          <mxGeometry relative="1" as="geometry" />
        </mxCell>
        <mxCell id="EIaNq5O-a3HQVo8P9T8s-1" value="animals" style="rounded=1;whiteSpace=wrap;html=1;strokeWidth=2;fontSize=17;" vertex="1" parent="1">
          <mxGeometry x="380" y="130" width="120" height="60" as="geometry" />
        </mxCell>
        <mxCell id="EIaNq5O-a3HQVo8P9T8s-12" style="edgeStyle=orthogonalEdgeStyle;rounded=0;orthogonalLoop=1;jettySize=auto;html=1;entryX=0.5;entryY=0;entryDx=0;entryDy=0;strokeWidth=2;fontSize=17;" edge="1" parent="1" source="EIaNq5O-a3HQVo8P9T8s-2" target="EIaNq5O-a3HQVo8P9T8s-5">
          <mxGeometry relative="1" as="geometry" />
        </mxCell>
        <mxCell id="EIaNq5O-a3HQVo8P9T8s-13" style="edgeStyle=orthogonalEdgeStyle;rounded=0;orthogonalLoop=1;jettySize=auto;html=1;entryX=0.5;entryY=0;entryDx=0;entryDy=0;strokeWidth=2;fontSize=17;" edge="1" parent="1" source="EIaNq5O-a3HQVo8P9T8s-2" target="EIaNq5O-a3HQVo8P9T8s-4">
          <mxGeometry relative="1" as="geometry" />
        </mxCell>
        <mxCell id="EIaNq5O-a3HQVo8P9T8s-14" style="edgeStyle=orthogonalEdgeStyle;rounded=0;orthogonalLoop=1;jettySize=auto;html=1;entryX=0.5;entryY=0;entryDx=0;entryDy=0;strokeWidth=2;fontSize=17;" edge="1" parent="1" source="EIaNq5O-a3HQVo8P9T8s-2" target="EIaNq5O-a3HQVo8P9T8s-6">
          <mxGeometry relative="1" as="geometry" />
        </mxCell>
        <mxCell id="EIaNq5O-a3HQVo8P9T8s-2" value="pets" style="rounded=1;whiteSpace=wrap;html=1;strokeWidth=2;fontSize=17;" vertex="1" parent="1">
          <mxGeometry x="150" y="190" width="120" height="60" as="geometry" />
        </mxCell>
        <mxCell id="EIaNq5O-a3HQVo8P9T8s-15" style="edgeStyle=orthogonalEdgeStyle;rounded=0;orthogonalLoop=1;jettySize=auto;html=1;entryX=0.5;entryY=0;entryDx=0;entryDy=0;strokeWidth=2;fontSize=17;" edge="1" parent="1" source="EIaNq5O-a3HQVo8P9T8s-3" target="EIaNq5O-a3HQVo8P9T8s-8">
          <mxGeometry relative="1" as="geometry" />
        </mxCell>
        <mxCell id="EIaNq5O-a3HQVo8P9T8s-16" style="edgeStyle=orthogonalEdgeStyle;rounded=0;orthogonalLoop=1;jettySize=auto;html=1;entryX=0.5;entryY=0;entryDx=0;entryDy=0;strokeWidth=2;fontSize=17;" edge="1" parent="1" source="EIaNq5O-a3HQVo8P9T8s-3" target="EIaNq5O-a3HQVo8P9T8s-7">
          <mxGeometry relative="1" as="geometry" />
        </mxCell>
        <mxCell id="EIaNq5O-a3HQVo8P9T8s-17" style="edgeStyle=orthogonalEdgeStyle;rounded=0;orthogonalLoop=1;jettySize=auto;html=1;entryX=0.5;entryY=0;entryDx=0;entryDy=0;strokeWidth=2;fontSize=17;" edge="1" parent="1" source="EIaNq5O-a3HQVo8P9T8s-3" target="EIaNq5O-a3HQVo8P9T8s-9">
          <mxGeometry relative="1" as="geometry" />
        </mxCell>
        <mxCell id="EIaNq5O-a3HQVo8P9T8s-3" value="pack animals" style="rounded=1;whiteSpace=wrap;html=1;strokeWidth=2;fontSize=17;" vertex="1" parent="1">
          <mxGeometry x="600" y="190" width="120" height="60" as="geometry" />
        </mxCell>
        <mxCell id="EIaNq5O-a3HQVo8P9T8s-4" value="cat" style="rounded=1;whiteSpace=wrap;html=1;strokeWidth=2;fontSize=17;" vertex="1" parent="1">
          <mxGeometry x="10" y="320" width="120" height="60" as="geometry" />
        </mxCell>
        <mxCell id="EIaNq5O-a3HQVo8P9T8s-5" value="dog" style="rounded=1;whiteSpace=wrap;html=1;strokeWidth=2;fontSize=17;" vertex="1" parent="1">
          <mxGeometry x="150" y="320" width="120" height="60" as="geometry" />
        </mxCell>
        <mxCell id="EIaNq5O-a3HQVo8P9T8s-6" value="hamster" style="rounded=1;whiteSpace=wrap;html=1;strokeWidth=2;fontSize=17;" vertex="1" parent="1">
          <mxGeometry x="294" y="320" width="120" height="60" as="geometry" />
        </mxCell>
        <mxCell id="EIaNq5O-a3HQVo8P9T8s-7" value="horse" style="rounded=1;whiteSpace=wrap;html=1;strokeWidth=2;fontSize=17;" vertex="1" parent="1">
          <mxGeometry x="460" y="320" width="120" height="60" as="geometry" />
        </mxCell>
        <mxCell id="EIaNq5O-a3HQVo8P9T8s-8" value="camel" style="rounded=1;whiteSpace=wrap;html=1;strokeWidth=2;fontSize=17;" vertex="1" parent="1">
          <mxGeometry x="600" y="320" width="120" height="60" as="geometry" />
        </mxCell>
        <mxCell id="EIaNq5O-a3HQVo8P9T8s-9" value="donkey" style="rounded=1;whiteSpace=wrap;html=1;strokeWidth=2;fontSize=17;" vertex="1" parent="1">
          <mxGeometry x="744" y="320" width="120" height="60" as="geometry" />
        </mxCell>
      </root>
    </mxGraphModel>
  </diagram>
</mxfile>
